<?xml version="1.0" encoding="UTF-8" standalone="no"?>
<!DOCTYPE svg PUBLIC "-//W3C//DTD SVG 1.1//EN" "http://www.w3.org/Graphics/SVG/1.1/DTD/svg11.dtd">
<svg width="100%" height="100%" viewBox="0 0 288 608" version="1.1" xmlns="http://www.w3.org/2000/svg" xmlns:xlink="http://www.w3.org/1999/xlink" xml:space="preserve" xmlns:serif="http://www.serif.com/" style="fill-rule:evenodd;clip-rule:evenodd;stroke-linejoin:round;stroke-miterlimit:1.41421;">
    <path id="_8" serif:id="8" d="M288,128L160,128L160,0L288,0L288,128ZM280,68L168,68L168,120L280,120L280,68ZM280,8L168,8L168,60L280,60L280,8Z"/>
    <path id="_16" serif:id="16" d="M288,176L176,176L176,216L288,216L288,288L160,288L160,160L288,160L288,176ZM128,288L112,288L112,176L64,176L64,160L128,160L128,288ZM272,232L176,232L176,272L272,272L272,232Z"/>
    <path id="_24" serif:id="24" d="M128,396L24,396L24,424L128,424L128,448L0,448L0,372L104,372L104,344L0,344L0,320L128,320L128,396ZM160,320L184,320L184,372L264,372L264,320L288,320L288,448L264,448L264,396L160,396L160,320Z"/>
    <path id="_32" serif:id="32" d="M128,608L0,608L0,576L96,576L96,560L0,560L0,528L96,528L96,512L0,512L0,480L128,480L128,608ZM288,560L192,560L192,576L288,576L288,608L160,608L160,528L256,528L256,512L160,512L160,480L288,480L288,560Z"/>
</svg>
