<?xml version="1.0" encoding="UTF-8" standalone="no"?>
<!DOCTYPE svg PUBLIC "-//W3C//DTD SVG 1.1//EN" "http://www.w3.org/Graphics/SVG/1.1/DTD/svg11.dtd">
<svg width="100%" height="100%" viewBox="0 0 928 384" version="1.1" xmlns="http://www.w3.org/2000/svg" xmlns:xlink="http://www.w3.org/1999/xlink" xml:space="preserve" xmlns:serif="http://www.serif.com/" style="fill-rule:evenodd;clip-rule:evenodd;stroke-linejoin:round;stroke-miterlimit:1.41421;">
    <path id="curves" d="M128,16L16,16L16,112L128,112L128,128L0,128L0,0L128,0L128,16ZM352,16L304,16L304,128L288,128L288,0L352,0L352,16ZM272,128L144,128L144,0L160,0L160,112L256,112L256,0L272,0L272,128ZM384,128L368,128L368,0L384,0L384,104.91L484.69,0L496,11.31L384,128ZM784,16L672,16L672,56L784,56L784,128L656,128L656,112L768,112L768,72L656,72L656,0L784,0L784,16ZM640,64L624,64L624,16L528,16L528,112L640,112L640,128L512,128L512,0L640,0L640,64Z"/>
    <path id="squares" d="M272,384L256,384L256,320L144,320L144,192L272,192L272,384ZM560,320L544,320L544,208L448,208L448,304L496,304L496,320L432,320L432,192L560,192L560,320ZM640,208L592,208L592,320L576,320L576,192L640,192L640,208ZM784,256L768,256L768,208L672,208L672,304L784,304L784,320L656,320L656,192L784,192L784,256ZM416,320L288,320L288,192L304,192L304,304L400,304L400,192L416,192L416,320ZM928,208L816,208L816,248L928,248L928,320L800,320L800,304L912,304L912,264L800,264L800,192L928,192L928,208ZM128,208L16,208L16,248L128,248L128,320L0,320L0,304L112,304L112,264L0,264L0,192L128,192L128,208ZM256,208L160,208L160,304L256,304L256,208Z"/>
    <path id="are-for" d="M848,88L840,88L840,104L848,104L848,112L840,112L840,128L832,128L832,80L848,80L848,88ZM912,88L904,88L904,112L896,112L896,80L912,80L912,88ZM888,112L856,112L856,80L888,80L888,112ZM880,88L864,88L864,104L880,104L880,88ZM864,48L856,48L856,24L840,24L840,40L848,40L848,48L832,48L832,16L864,16L864,48ZM888,24L880,24L880,48L872,48L872,16L888,16L888,24ZM928,32L920,32L920,24L904,24L904,40L928,40L928,48L896,48L896,16L928,16L928,32Z" style="fill:rgb(13,13,13);"/>
</svg>
