<?xml version="1.0" encoding="UTF-8" standalone="no"?>
<!DOCTYPE svg PUBLIC "-//W3C//DTD SVG 1.1//EN" "http://www.w3.org/Graphics/SVG/1.1/DTD/svg11.dtd">
<svg width="100%" height="100%" viewBox="0 0 832 352" version="1.1" xmlns="http://www.w3.org/2000/svg" xmlns:xlink="http://www.w3.org/1999/xlink" xml:space="preserve" xmlns:serif="http://www.serif.com/" style="fill-rule:evenodd;clip-rule:evenodd;stroke-linejoin:round;stroke-miterlimit:1.41421;">
    <path id="disenyo" d="M128,192L0,192L0,64L104,64L104,0L128,0L128,192ZM188,64L188,192L164,192L164,64L188,64ZM512,128L488,128L488,88L408,88L408,168L512,168L512,192L384,192L384,64L512,64L512,128ZM352,88L248,88L248,116L352,116L352,192L224,192L224,168L328,168L328,140L224,140L224,64L352,64L352,88ZM832,192L704,192L704,64L832,64L832,192ZM672,192L648,192L648,88L568,88L568,192L544,192L544,64L672,64L672,192ZM104,88L24,88L24,168L104,168L104,88ZM808,88L728,88L728,168L808,168L808,88ZM648,0L648,24L568,24L568,0L648,0Z"/>
    <path id="sistematico" d="M552,320L536,320L536,272L504,272L504,304L520,304L520,320L488,320L488,256L552,256L552,320ZM648,256L648,320L632,320L632,256L648,256ZM112,256L112,320L96,320L96,256L112,256ZM240,256L256,256L256,272L240,272L240,320L224,320L224,224L240,224L240,256ZM592,256L608,256L608,272L592,272L592,320L576,320L576,224L592,224L592,256ZM200,272L152,272L152,280L200,280L200,320L136,320L136,304L184,304L184,296L136,296L136,256L200,256L200,272ZM72,272L24,272L24,280L72,280L72,320L8,320L8,304L56,304L56,296L8,296L8,256L72,256L72,272ZM344,288L328,288L328,272L296,272L296,304L344,304L344,320L280,320L280,256L344,256L344,288ZM736,272L688,272L688,304L736,304L736,320L672,320L672,256L736,256L736,272ZM824,320L760,320L760,256L824,256L824,320ZM464,319.515L448,319.515L448,272L424,272L424,287.515L408,287.515L408,272L384,272L384,319.515L368,319.515L368,255.515L464,255.515L464,319.515ZM808,272L776,272L776,304L808,304L808,272ZM520.686,224L508,236.686L519.314,248L532,235.314L520.686,224Z" style="fill:rgb(13,13,13);"/>
</svg>
