<?xml version="1.0" encoding="UTF-8" standalone="no"?>
<!DOCTYPE svg PUBLIC "-//W3C//DTD SVG 1.1//EN" "http://www.w3.org/Graphics/SVG/1.1/DTD/svg11.dtd">
<svg width="100%" height="100%" viewBox="0 0 832 352" version="1.1" xmlns="http://www.w3.org/2000/svg" xmlns:xlink="http://www.w3.org/1999/xlink" xml:space="preserve" xmlns:serif="http://www.serif.com/" style="fill-rule:evenodd;clip-rule:evenodd;stroke-linejoin:round;stroke-miterlimit:1.41421;">
    <g transform="matrix(1,0,0,1,-704,-64)">
        <g transform="matrix(1,0,0,1,576,-1728)">
            <rect x="128" y="1792" width="128" height="256" style="fill:none;"/>
        </g>
        <g transform="matrix(1,0,0,1,-7.24754e-13,-1728)">
            <path d="M704,1856L808,1856L808,1792L832,1792L832,1984L704,1984L704,1856ZM808,1880L728,1880L728,1960L808,1960L808,1880Z"/>
        </g>
    </g>
    <g transform="matrix(1,0,0,1,-512,-64)">
        <g transform="matrix(1,0,0,1,768,-1728)">
            <rect x="128" y="1792" width="128" height="256" style="fill:none;"/>
        </g>
        <g transform="matrix(1,0,0,1,-7.24754e-13,-1728)">
            <path d="M1024,1880L1024,1920L1000,1920L1000,1880L920,1880L920,1960L1024,1960L1024,1984L896,1984L896,1960L896,1880L896,1856L1024,1856L1024,1880Z"/>
        </g>
    </g>
    <g transform="matrix(1,0,0,1,-672,-704)">
        <g transform="matrix(1,0,0,1,768,-1088)">
            <rect x="128" y="1792" width="128" height="256" style="fill:none;"/>
        </g>
        <g transform="matrix(1,0,0,1,-2336,-1088)">
            <path d="M3232,1856L3360,1856L3360,1880L3256,1880L3256,1908L3360,1908L3360,1984C3360,1984 3232,1984 3232,1984L3232,1960L3336,1960L3336,1932L3232,1932L3232,1908L3232,1880L3232,1856Z"/>
        </g>
    </g>
    <g transform="matrix(1,0,0,1,-2752,-704)">
        <g transform="matrix(1,0,0,1,3328,-1088)">
            <rect x="128" y="1792" width="128" height="256" style="fill:none;"/>
        </g>
        <g transform="matrix(1,0,0,1,928,-1088)">
            <path d="M2528,1856L2656,1856L2656,1984L2552,1984L2528,1984L2528,1856ZM2632,1960L2632,1880L2552,1880L2552,1960L2632,1960Z"/>
        </g>
    </g>
    <g transform="matrix(1,0,0,1,-1440,-1792)">
        <g transform="matrix(0.25,0,0,1,1568,0)">
            <rect x="128" y="1792" width="128" height="256" style="fill:none;"/>
        </g>
        <g transform="matrix(3,0,0,1,1316,1736)">
            <rect x="96" y="120" width="8" height="128"/>
        </g>
    </g>
    <g transform="matrix(1,0,0,1,-3936,-384)">
        <g transform="matrix(1,0,0,1,4352,-1408)">
            <rect x="128" y="1792" width="128" height="256" style="fill:none;"/>
        </g>
        <g transform="matrix(1,0,0,1,2144,-1408)">
            <path d="M2336,1856L2464,1856L2464,1984L2440,1984L2440,1880L2360,1880L2360,1984L2336,1984L2336,1856Z"/>
        </g>
        <g transform="matrix(0.625,0,0,0.75,4004,84)">
            <rect x="800" y="400" width="128" height="32"/>
        </g>
    </g>
    <g transform="matrix(0.5,0,0,0.5,424,192)">
        <g transform="matrix(1,0,0,1,-7.24754e-13,-1728)">
            <rect x="128" y="1792" width="128" height="256" style="fill:none;"/>
        </g>
        <g transform="matrix(1,0,0,1,-32,-2816)">
            <path d="M288,2944L288,3072L256,3072L256,2976L192,2976L192,3040L224,3040L224,3072L160,3072L160,2944L288,2944Z" style="fill:rgb(13,13,13);"/>
        </g>
        <g transform="matrix(3.17157,-3.17157,0.176777,0.176777,-157.684,372.63)">
            <rect x="96" y="120" width="8" height="128"/>
        </g>
    </g>
    <g transform="matrix(0.5,0,0,0.5,-320,-128)">
        <g transform="matrix(0.5,0,0,1,1024,-1088)">
            <rect x="128" y="1792" width="128" height="256" style="fill:none;"/>
        </g>
        <g transform="matrix(1,0,0,1,-2400,-2176)">
            <path d="M3488,2880L3520,2880L3520,2944L3552,2944L3552,2976L3520,2976L3520,3072L3488,3072L3488,2880Z" style="fill:rgb(13,13,13);"/>
        </g>
    </g>
    <g transform="matrix(0.5,0,0,0.5,32,-128)">
        <g transform="matrix(0.5,0,0,1,1024,-1088)">
            <rect x="128" y="1792" width="128" height="256" style="fill:none;"/>
        </g>
        <g transform="matrix(1,0,0,1,-2400,-2176)">
            <path d="M3488,2880L3520,2880L3520,2944L3552,2944L3552,2976L3520,2976L3520,3072L3488,3072L3488,2880Z" style="fill:rgb(13,13,13);"/>
        </g>
    </g>
    <g transform="matrix(0.5,0,0,0.5,-168,192)">
        <g transform="matrix(1,0,0,1,768,-1728)">
            <rect x="128" y="1792" width="128" height="256" style="fill:none;"/>
        </g>
        <g transform="matrix(1,0,0,1,-64,-2816)">
            <path d="M1088,2976L1088,3008L1056,3008L1056,2976L992,2976L992,3040L1088,3040L1088,3072L960,3072L960,3040L960,2976L960,2944L1088,2944L1088,2976Z" style="fill:rgb(13,13,13);"/>
        </g>
    </g>
    <g transform="matrix(0.5,0,0,0.5,-440,-128)">
        <g transform="matrix(1,0,0,1,768,-1088)">
            <rect x="128" y="1792" width="128" height="256" style="fill:none;"/>
        </g>
        <g transform="matrix(1,0,0,1,-2432,-2176)">
            <path d="M3328,2944L3456,2944L3456,2976L3360,2976L3360,2992L3456,2992L3456,3072C3456,3072 3328,3072 3328,3072L3328,3040L3424,3040L3424,3024L3328,3024L3328,2992C3328,2992 3328,2976 3328,2976C3328,2976 3328,2944 3328,2944Z" style="fill:rgb(13,13,13);"/>
        </g>
    </g>
    <g transform="matrix(0.5,0,0,0.5,-312,-128)">
        <g transform="matrix(1,0,0,1,768,-1088)">
            <rect x="128" y="1792" width="128" height="256" style="fill:none;"/>
        </g>
        <g transform="matrix(1,0,0,1,-2432,-2176)">
            <path d="M3328,2944L3456,2944L3456,2976L3360,2976L3360,2992L3456,2992L3456,3072C3456,3072 3328,3072 3328,3072L3328,3040L3424,3040L3424,3024L3328,3024L3328,2992C3328,2992 3328,2976 3328,2976C3328,2976 3328,2944 3328,2944Z" style="fill:rgb(13,13,13);"/>
        </g>
    </g>
    <g transform="matrix(0.5,0,0,0.5,-704,-672)">
        <g transform="matrix(4,0,0,1,1216,1736)">
            <rect x="96" y="120" width="8" height="128" style="fill:rgb(13,13,13);"/>
        </g>
        <g transform="matrix(0.25,0,0,1,1568,0)">
            <rect x="128" y="1792" width="128" height="256" style="fill:none;"/>
        </g>
    </g>
    <g transform="matrix(0.5,0,0,0.5,-168,-672)">
        <g transform="matrix(4,0,0,1,1216,1736)">
            <rect x="96" y="120" width="8" height="128" style="fill:rgb(13,13,13);"/>
        </g>
        <g transform="matrix(0.25,0,0,1,1568,0)">
            <rect x="128" y="1792" width="128" height="256" style="fill:none;"/>
        </g>
    </g>
    <g transform="matrix(0.5,0,0,0.5,416,192)">
        <g transform="matrix(1,0,0,1,384,-1728)">
            <rect x="128" y="1792" width="128" height="256" style="fill:none;"/>
        </g>
        <g transform="matrix(1,0,0,1,-64,-2816)">
            <path d="M576,3040L576,2976L576,2944L704,2944L704,2976L608,2976L608,3040L704,3040L704,3072L576,3072L576,3040Z" style="fill:rgb(13,13,13);"/>
        </g>
    </g>
    <g transform="matrix(0.5,0,0,0.5,-968,-128)">
        <g transform="matrix(1,0,0,1,3328,-1088)">
            <rect x="128" y="1792" width="128" height="256" style="fill:none;"/>
        </g>
        <g transform="matrix(1,0,0,1,928,-2176)">
            <path d="M2528,2944C2528,2944 2656,2944 2656,2944L2656,3072L2560,3072L2528,3072L2528,2944ZM2624,3040L2624,2976L2560,2976L2560,3040L2624,3040Z" style="fill:rgb(13,13,13);"/>
        </g>
    </g>
    <g transform="matrix(0.5,0,0,0.5,-1744,31.5147)">
        <g transform="matrix(1.5,0,0,1,4032,-1407.03)">
            <rect x="128" y="1792" width="128" height="256" style="fill:none;"/>
        </g>
        <g transform="matrix(1,0,0,1,2128,-2495.03)">
            <path d="M2096,2943.03L2288,2943.03L2288,3071.03L2256,3071.03L2256,2976L2208,2976L2208,3007.03L2176,3007.03L2176,2976L2128,2976L2128,3071.03L2096,3071.03L2096,2976L2096,2943.03Z" style="fill:rgb(13,13,13);"/>
        </g>
    </g>
</svg>
