<?xml version="1.0" encoding="UTF-8" standalone="no"?>
<!DOCTYPE svg PUBLIC "-//W3C//DTD SVG 1.1//EN" "http://www.w3.org/Graphics/SVG/1.1/DTD/svg11.dtd">
<svg width="100%" height="100%" viewBox="0 0 560 288" version="1.1" xmlns="http://www.w3.org/2000/svg" xmlns:xlink="http://www.w3.org/1999/xlink" xml:space="preserve" xmlns:serif="http://www.serif.com/" style="fill-rule:evenodd;clip-rule:evenodd;stroke-linejoin:round;stroke-miterlimit:1.41421;">
    <path id="modular-typeface" d="M440,248L432,248L432,264L440,264L440,272L432,272L432,288L424,288L424,240L440,240L440,248ZM376,272L352,272L352,288L344,288L344,240L376,240L376,272ZM336,287.757L328,287.757L328,271.879L304,271.879L304,239.757L312,239.757L312,263.879L328,263.879L328,239.757L336,239.757L336,287.757ZM224,272L216,272L216,248L200,248L200,264L208,264L208,272L192,272L192,240L224,240L224,272ZM184.001,272L176.001,272L176.001,224L184.001,224L184.001,272ZM248,248L240,248L240,272L232,272L232,240L248,240L248,248ZM88,272L56,272L56,240L88,240L88,272ZM168,272L136,272L136,240L144,240L144,264L160,264L160,240L168,240L168,272ZM128,272L96,272L96,240L120,240L120,224L128,224L128,272ZM288,240L296,240L296,248L288,248L288,272L280,272L280,224L288,224L288,240ZM416,256L408,256L408,248L392,248L392,264L416,264L416,272L384,272L384,240L416,240L416,256ZM560,256L552,256L552,248L536,248L536,264L560,264L560,272L528,272L528,240L560,240L560,256ZM480,272L472,272L472,248L456,248L456,264L464,264L464,272L448,272L448,240L480,240L480,272ZM520,248L496,248L496,264L520,264L520,272L488,272L488,240L520,240L520,248ZM48,271.757L40,271.757L40,248L28,248L28,255.757L20,255.757L20,248L8,248L8,271.757L0,271.757L0,239.757L48,239.757L48,271.757ZM80,248L64,248L64,264L80,264L80,248ZM120,248L104,248L104,264L120,264L120,248ZM368,248L352,248L352,264L368,264L368,248Z"/>
    <path id="ocho" d="M272,88L168,88L168,168L272,168L272,192L144,192L144,64L272,64L272,88ZM560,192L432,192L432,64L560,64L560,192ZM128,192L0,192L0,64L128,64L128,192ZM312,64L416,64L416,192L392,192L392,88L312,88L312,192L288,192L288,0L312,0L312,64ZM536,88L456,88L456,168L536,168L536,88ZM104,88L24,88L24,168L104,168L104,88Z"/>
</svg>
