<svg width="100%" height="100%" viewBox="0 0 560 288" version="1.1" xmlns="http://www.w3.org/2000/svg" xmlns:xlink="http://www.w3.org/1999/xlink" xml:space="preserve" xmlns:serif="http://www.serif.com/" style="fill-rule:evenodd;clip-rule:evenodd;stroke-linejoin:round;stroke-miterlimit:1.41421;">
    <g transform="matrix(1,0,0,1,-368,-64)">
        <g transform="matrix(1,0,0,1,384,-1728)">
            <rect x="128" y="1792" width="128" height="256" style="fill:none;"/>
        </g>
        <g transform="matrix(1,0,0,1,168,-96)">
            <path d="M344,224L472,224L472,248L368,248L368,328L472,328L472,352L344,352L344,224Z"/>
        </g>
    </g>
    <g transform="matrix(1,0,0,1,-3024,-704)">
        <g transform="matrix(1,0,0,1,3328,-1088)">
            <rect x="128" y="1792" width="128" height="256" style="fill:none;"/>
        </g>
        <g transform="matrix(1,0,0,1,2824,544)">
            <path d="M632,224L760,224L760,352L656,352L632,352L632,224ZM736,328L736,248L656,248L656,328L736,328Z"/>
        </g>
    </g>
    <g transform="matrix(1,0,0,1,-3456,-704)">
        <g transform="matrix(1,0,0,1,3328,-1088)">
            <rect x="128" y="1792" width="128" height="256" style="fill:none;"/>
        </g>
        <g transform="matrix(1,0,0,1,3256,544)">
            <path d="M200,224L328,224L328,352L224,352L200,352L200,224ZM304,328L304,248L224,248L224,328L304,328Z"/>
        </g>
    </g>
    <g transform="matrix(1,0,0,1,-3360,-384)">
        <g transform="matrix(1,0,0,1,3520,-1408)">
            <rect x="128" y="1792" width="128" height="256" style="fill:none;"/>
        </g>
        <g transform="matrix(1,0,0,1,3160,224)">
            <path d="M512,248L512,352L488,352L488,160L512,160L512,224L616,224L616,352L592,352L592,248L512,248Z"/>
        </g>
    </g>
    <g transform="matrix(1,0,0,1,184,-160)">
        <g transform="matrix(0.25,0,0,0.25,-104,127.757)">
            <g transform="matrix(1,0,0,1,768,-767.029)">
                <rect x="128" y="1792" width="128" height="256" style="fill:none;"/>
            </g>
            <g transform="matrix(4,0,0,4,-1120,-511.029)">
                <path d="M504,399.757L512,399.757L512,423.879L528,423.879L528,399.757L536,399.757L536,447.757L528,447.757L528,431.879L504,431.879L504,431.757L504,399.757Z"/>
            </g>
        </g>
        <g transform="matrix(0.25,0,0,0.25,232,368)">
            <g transform="matrix(1,0,0,1,-7.24754e-13,-1728)">
                <rect x="128" y="1792" width="128" height="256" style="fill:none;"/>
            </g>
            <g transform="matrix(4,0,0,4,-2464,-1472)">
                <path d="M680,400L680,432L672,432L672,408L656,408L656,424L664,424L664,432L648,432L648,400L680,400Z"/>
            </g>
        </g>
        <g transform="matrix(0.25,0,0,0.25,-176,208)">
            <g transform="matrix(0.5,0,0,1,1024,-1088)">
                <rect x="128" y="1792" width="128" height="256" style="fill:none;"/>
            </g>
            <g transform="matrix(4,0,0,4,-832,-832)">
                <path d="M480,384L488,384L488,400L496,400L496,408L488,408L488,432L480,432L480,384Z"/>
            </g>
        </g>
        <g transform="matrix(0.25,0,0,0.25,-24,368)">
            <g transform="matrix(1,0,0,1,768,-1728)">
                <rect x="128" y="1792" width="128" height="256" style="fill:none;"/>
            </g>
            <g transform="matrix(4,0,0,4,-1440,-1472)">
                <path d="M616,408L616,416L608,416L608,408L592,408L592,424L616,424L616,432L584,432L584,400L616,400L616,408Z"/>
            </g>
        </g>
        <g transform="matrix(0.25,0,0,0.25,120,368)">
            <g transform="matrix(1,0,0,1,768,-1728)">
                <rect x="128" y="1792" width="128" height="256" style="fill:none;"/>
            </g>
            <g transform="matrix(4,0,0,4,-2016,-1472)">
                <path d="M760,408L760,416L752,416L752,408L736,408L736,424L760,424L760,432L728,432L728,424L728,408L728,400L760,400L760,408Z"/>
            </g>
        </g>
        <g transform="matrix(0.25,0,0,0.25,-32,368)">
            <g transform="matrix(0.5,0,0,1,1024,-1728)">
                <rect x="128" y="1792" width="128" height="256" style="fill:none;"/>
            </g>
            <g transform="matrix(4,0,0,4,-1408,-1472)">
                <path d="M624,400L640,400L640,408L632,408L632,424L640,424L640,432L632,432L632,448L624,448L624,400Z"/>
            </g>
        </g>
        <g transform="matrix(0.25,0,0,0.25,176,368)">
            <g transform="matrix(1,0,0,1,384,-1728)">
                <rect x="128" y="1792" width="128" height="256" style="fill:none;"/>
            </g>
            <g transform="matrix(4,0,0,4,-2240,-1472)">
                <path d="M720,408L696,408L696,424L720,424L720,432L688,432L688,400L720,400L720,408Z"/>
            </g>
        </g>
        <g transform="matrix(0.25,0,0,0.25,80,208)">
            <g transform="matrix(1,0,0,1,192,-1088)">
                <rect x="128" y="1792" width="128" height="256" style="fill:none;"/>
            </g>
            <g transform="matrix(4,0,0,4,-1856,-832)">
                <path d="M552,432L552,448L544,448L544,432L544,424L544,408L544,400L576,400L576,432L568,432L552,432ZM568,424L568,408L552,408L552,424L568,424Z"/>
            </g>
        </g>
    </g>
    <g transform="matrix(1,0,0,1,-576,-176)">
        <g transform="matrix(0.25,0,0,0.25,736,384)">
            <g transform="matrix(1,0,0,1,-7.24754e-13,-1728)">
                <rect x="128" y="1792" width="128" height="256" style="fill:none;"/>
            </g>
            <g transform="matrix(4,0,0,4,-1440,-1472)">
                <path d="M392,400L424,400L424,432L416,432L416,408L400,408L400,424L408,424L408,432L392,432L392,400Z"/>
            </g>
        </g>
        <g transform="matrix(0.25,0,0,0.25,632,224)">
            <g transform="matrix(0.5,0,0,1,640,-1088)">
                <rect x="128" y="1792" width="128" height="256" style="fill:none;"/>
            </g>
            <g transform="matrix(4,0,0,4,-1024,-832)">
                <path d="M448,408L440,408L440,432L432,432L432,408L432,400L448,400L448,408Z"/>
            </g>
        </g>
        <g transform="matrix(0.25,0,0,0.25,-232,224)">
            <g transform="matrix(1,0,0,1,3328,-1088)">
                <rect x="128" y="1792" width="128" height="256" style="fill:none;"/>
            </g>
            <g transform="matrix(4,0,0,4,2432,-832)">
                <path d="M264,432L256,432L256,400L288,400L288,432L280,432L264,432ZM280,424L280,408L264,408L264,424L280,424Z"/>
            </g>
        </g>
        <g transform="matrix(0.25,0,0,0.25,680,144)">
            <g transform="matrix(1,0,0,1,3.86535e-12,-768)">
                <rect x="128" y="1792" width="128" height="256" style="fill:none;"/>
            </g>
            <g transform="matrix(4,0,0,4,-1216,-512)">
                <path d="M344,432L336,432L336,400L344,400L344,424L360,424L360,400L368,400L368,432L360,432L344,432Z"/>
            </g>
        </g>
        <g transform="matrix(0.25,0,0,0.25,-284.004,304)">
            <g transform="matrix(0.25,0,0,1,4112.02,-1408)">
                <rect x="128" y="1792" width="128" height="256" style="fill:none;"/>
            </g>
            <g transform="matrix(4,0,0,1.5,3760.02,204)">
                <rect x="96" y="120" width="8" height="128"/>
            </g>
        </g>
        <g transform="matrix(0.25,0,0,0.25,496,384)">
            <g transform="matrix(1,0,0,1,576,-1728)">
                <rect x="128" y="1792" width="128" height="256" style="fill:none;"/>
            </g>
            <g transform="matrix(4,0,0,4,-480,-1472)">
                <path d="M296,400L320,400L320,384L328,384L328,432L296,432L296,400ZM320,408L304,408L304,424L320,424L320,408Z"/>
            </g>
        </g>
        <g transform="matrix(0.25,0,0,0.25,-480,303.757)">
            <g transform="matrix(1.5,0,0,1,4032,-1407.03)">
                <rect x="128" y="1792" width="128" height="256" style="fill:none;"/>
            </g>
            <g transform="matrix(4,0,0,4,3424,-1151.03)">
                <path d="M200,399.757L248,399.757L248,431.757L240,431.757L240,408L228,408L228,415.757L220,415.757L220,408L208,408L208,431.757L200,431.757L200,408L200,399.757Z"/>
            </g>
        </g>
    </g>
</svg>
