<?xml version="1.0" encoding="UTF-8" standalone="no"?>
<!DOCTYPE svg PUBLIC "-//W3C//DTD SVG 1.1//EN" "http://www.w3.org/Graphics/SVG/1.1/DTD/svg11.dtd">
<svg width="100%" height="100%" viewBox="0 0 784 128" version="1.1" xmlns="http://www.w3.org/2000/svg" xmlns:xlink="http://www.w3.org/1999/xlink" xml:space="preserve" xmlns:serif="http://www.serif.com/" style="fill-rule:evenodd;clip-rule:evenodd;stroke-linejoin:round;stroke-miterlimit:1.41421;">
    <g transform="matrix(0.5,0,0,0.5,96,-32)">
        <g>
            <g transform="matrix(1,0,0,1,1.13687e-13,-1728)">
                <rect x="128" y="1792" width="128" height="256" style="fill:none;"/>
            </g>
            <path d="M256,128L256,256L248,256L248,136L136,136L136,248L192,248L192,256L128,256L128,128L256,128Z"/>
        </g>
    </g>
    <g transform="matrix(0.5,0,0,0.5,160,-32)">
        <g transform="matrix(1,0,0,1,192,-1728)">
            <rect x="128" y="1792" width="128" height="256" style="fill:none;"/>
        </g>
        <path d="M320,64L328,64L328,128L448,128L448,256L320,256L320,64ZM440,248L440,136L328,136L328,248L440,248Z"/>
    </g>
    <g transform="matrix(0.5,0,0,0.5,-448,-352)">
        <g transform="matrix(1,0,0,1,768,-1088)">
            <rect x="128" y="1792" width="128" height="256" style="fill:none;"/>
        </g>
        <g transform="matrix(1,0,0,1,-2304,640)">
            <path d="M3200,256L3200,248L3320,248L3320,196L3200,196L3200,128L3328,128L3328,136L3208,136L3208,188L3328,188L3328,256L3200,256Z"/>
        </g>
    </g>
    <g transform="matrix(0.5,0,0,0.5,192,-352)">
        <g transform="matrix(1,0,0,1,768,-1088)">
            <rect x="128" y="1792" width="128" height="256" style="fill:none;"/>
        </g>
        <g transform="matrix(1,0,0,1,-2304,640)">
            <path d="M3200,256L3200,248L3320,248L3320,196L3200,196L3200,128L3328,128L3328,136L3208,136L3208,188L3328,188L3328,256L3200,256Z"/>
        </g>
    </g>
    <g transform="matrix(0.5,0,0,0.5,-80,-352)">
        <g transform="matrix(1,0,0,1,192,-1088)">
            <rect x="128" y="1792" width="128" height="256" style="fill:none;"/>
        </g>
        <g transform="matrix(1,0,0,1,-2368,640)">
            <path d="M2688,128L2816,128L2816,256L2696,256L2696,320L2688,320L2688,128ZM2808,248L2808,136L2696,136L2696,248L2808,248Z"/>
        </g>
    </g>
    <g transform="matrix(0.5,0,0,0.5,-512,-96)">
        <g transform="matrix(1,0,0,1,1376,-1600)">
            <rect x="128" y="1792" width="128" height="256" style="fill:none;"/>
        </g>
        <g transform="matrix(1,0,0,1,672,-512)">
            <path d="M832,704L896,704L896,712L840,712L840,960L832,960L832,704ZM896,888L952,888L952,776L880,776L880,768L960,768L960,896L896,896L896,888Z"/>
        </g>
    </g>
    <g transform="matrix(0.5,0,0,0.5,-1136,-32)">
        <g transform="matrix(0.5,0,0,1,3008,-1728)">
            <rect x="128" y="1792" width="128" height="256" style="fill:none;"/>
        </g>
        <path d="M3136,136L3080,136L3080,256L3072,256L3072,128L3136,128L3136,136Z"/>
    </g>
    <g transform="matrix(0.5,0,0,0.5,6.75016e-13,-32)">
        <g transform="matrix(1,0,0,1,768,-1728)">
            <rect x="128" y="1792" width="128" height="256" style="fill:none;"/>
        </g>
        <path d="M1016,192L1016,136L904,136L904,248L1024,248L1024,256L896,256L896,128L1024,128L1024,192L1016,192Z"/>
    </g>
    <g transform="matrix(0.5,0,0,0.5,272,-32)">
        <g transform="matrix(1,0,0,1,768,-1728)">
            <rect x="128" y="1792" width="128" height="256" style="fill:none;"/>
        </g>
        <path d="M1016,192L1016,136L904,136L904,248L1024,248L1024,256L896,256L896,128L1024,128L1024,192L1016,192Z"/>
    </g>
    <g transform="matrix(0.5,0,0,0.5,112,-192)">
        <g transform="matrix(1.5,0,0,1,640,-1408)">
            <rect x="128" y="1792" width="128" height="256" style="fill:none;"/>
        </g>
        <g transform="matrix(1,0,0,1,-1216,320)">
            <path d="M2232,256L2232,136L2148.16,136L2148.16,192L2140.16,192L2140.16,136L2056,136L2056,256L2048,256L2048,136L2048,128L2240,128L2240,256L2232,256Z"/>
        </g>
    </g>
</svg>
