<?xml version="1.0" encoding="UTF-8" standalone="no"?>
<!DOCTYPE svg PUBLIC "-//W3C//DTD SVG 1.1//EN" "http://www.w3.org/Graphics/SVG/1.1/DTD/svg11.dtd">
<svg width="100%" height="100%" viewBox="0 0 784 128" version="1.1" xmlns="http://www.w3.org/2000/svg" xmlns:xlink="http://www.w3.org/1999/xlink" xml:space="preserve" xmlns:serif="http://www.serif.com/" style="fill-rule:evenodd;clip-rule:evenodd;stroke-linejoin:round;stroke-miterlimit:1.41421;">
    <path id="spassbremse" d="M144,96L84,96L84,128L80,128L80,32L144,32L144,96ZM272,4L244,4L244,128L240,128L240,0L272,0L272,4ZM224,96L220,96L220,36L164,36L164,92L192,92L192,96L160,96L160,32L224,32L224,96ZM432,36L404,36L404,96L400,96L400,32L432,32L432,36ZM784,64L780,64L780,36L724,36L724,92L784,92L784,96L720,96L720,32L784,32L784,64ZM64,36L4,36L4,62L64,62L64,96L0,96L0,92L60,92L60,66L0,66L0,32L64,32L64,36ZM704,36L644,36L644,62L704,62L704,96L640,96L640,92L700,92L700,66L640,66L640,32L704,32L704,36ZM512,64L508,64L508,36L452,36L452,92L512,92L512,96L448,96L448,32L512,32L512,64ZM624,96L620,96L620,36L578.08,36L578.08,64L574.08,64L574.08,36L532,36L532,96L528,96L528,32L624,32L624,96ZM324,32L384,32L384,96L320,96L320,0L324,0L324,32ZM304,96L272,96L272,92L300,92L300,36L264,36L264,32L304,32L304,96ZM140,36L84,36L84,92L140,92L140,36ZM380,36L324,36L324,92L380,92L380,36Z"/>
</svg>
