<?xml version="1.0" encoding="UTF-8" standalone="no"?>
<!DOCTYPE svg PUBLIC "-//W3C//DTD SVG 1.1//EN" "http://www.w3.org/Graphics/SVG/1.1/DTD/svg11.dtd">
<svg width="100%" height="100%" viewBox="0 0 1344 800" version="1.1" xmlns="http://www.w3.org/2000/svg" xmlns:xlink="http://www.w3.org/1999/xlink" xml:space="preserve" xmlns:serif="http://www.serif.com/" style="fill-rule:evenodd;clip-rule:evenodd;stroke-linejoin:round;stroke-miterlimit:1.41421;">
    <path id="fuck" d="M704,624L656,624L656,720L704,720L704,736L656,736L656,800L640,800L640,608L704,608L704,624ZM992,624L880,624L880,720L992,720L992,736L864,736L864,608L992,608L992,624ZM1040,736L1024,736L1024,544L1040,544L1040,712.91L1140.69,608L1152,619.31L1100.39,673.08L1152,724.69L1140.69,736L1089.31,684.62L1040,736ZM784,596.69L804.69,576L816,587.31L795.31,608L816,628.69L804.69,640L784,619.31L763.31,640L752,628.69L772.69,608L752,587.31L763.31,576L784,596.69Z"/>
    <path id="as" d="M768,464L752,464L752,352L656,352L656,448L704,448L704,464L640,464L640,336L768,336L768,464ZM928,352L816,352L816,392L928,392L928,464L800,464L800,448L912,448L912,408L800,408L800,336L928,336L928,352Z"/>
    <path id="sharp" d="M1344,192L1232,192L1232,256L1216,256L1216,64L1344,64L1344,192ZM1088,192L1072,192L1072,80L976,80L976,176L1024,176L1024,192L960,192L960,64L1088,64L1088,192ZM1184,80L1136,80L1136,192L1120,192L1120,64L1184,64L1184,80ZM768,80L656,80L656,120L768,120L768,192L640,192L640,176L752,176L752,136L640,136L640,64L768,64L768,80ZM816,64L928,64L928,192L912,192L912,80L816,80L816,192L800,192L800,0L816,0L816,64ZM1328,80L1232,80L1232,176L1328,176L1328,80Z"/>
    <path id="radius" d="M42.667,666.667L16.001,666.667L16.001,736.001L0.001,736.001L0.001,650.667L42.667,650.667L42.667,666.667ZM512,666.667L442.667,666.667L442.667,685.334L512,685.334L512,736.001L426.667,736.001L426.667,720.001L496,720.001L496,701.334L426.667,701.334L426.667,650.667L512,650.667L512,666.667ZM296.001,650.667L296.001,736L280.001,736L280.001,650.667L296.001,650.667ZM405.334,736L320,736L320,650.667L336,650.667L336,720L389.334,720L389.334,650.667L405.334,650.667L405.334,736ZM149.334,736L133.334,736L133.334,666.666L80,666.666L80,720L106.667,720L106.667,736L64,736L64,650.666L149.334,650.666L149.334,736ZM256,736L170.667,736L170.667,650.666L240,650.666L240,608L256,608L256,736ZM240,666.666L186.667,666.666L186.667,720L240,720L240,666.666Z"/>
    <path id="zero" d="M512,576L0,576L0,64L512,64L512,576ZM32,118.628L32,544L457.372,544L32,118.628ZM480,96L54.628,96L480,521.372L480,96Z"/>
</svg>
